<svg style="color:#BBC6CD" xmlns="http://www.w3.org/2000/svg" viewBox="0 0 24 24" width="24" height="24" fill="none">
<g transform="translate(2 2)">
<circle cx="4" cy="4" r="2.7" fill="currentColor"/>
<circle cx="16" cy="4" r="2.7" fill="currentColor"/>
<circle cx="10" cy="10" r="2.7" fill="currentColor"/>
<circle cx="4" cy="16" r="2.7" fill="currentColor"/>
<circle cx="16" cy="16" r="2.7" fill="currentColor"/>
<path fill-rule="evenodd" clip-rule="evenodd" fill="currentColor" d="M10 1.3a2.7 2.7 0 1 1 0 5.4 2.7 2.7 0 0 1 0-5.4zm0 1.45a1.25 1.25 0 1 0 0 2.5 1.25 1.25 0 0 0 0-2.5z"/>
<path fill-rule="evenodd" clip-rule="evenodd" fill="currentColor" d="M4 7.3a2.7 2.7 0 1 1 0 5.4 2.7 2.7 0 0 1 0-5.4zm0 1.45a1.25 1.25 0 1 0 0 2.5 1.25 1.25 0 0 0 0-2.5z"/>
<path fill-rule="evenodd" clip-rule="evenodd" fill="currentColor" d="M16 7.3a2.7 2.7 0 1 1 0 5.4 2.7 2.7 0 0 1 0-5.4zm0 1.45a1.25 1.25 0 1 0 0 2.5 1.25 1.25 0 0 0 0-2.5z"/>
<path fill-rule="evenodd" clip-rule="evenodd" fill="currentColor" d="M10 13.3a2.7 2.7 0 1 1 0 5.4 2.7 2.7 0 0 1 0-5.4zm0 1.45a1.25 1.25 0 1 0 0 2.5 1.25 1.25 0 0 0 0-2.5z"/>
</g>
</svg>
