<svg style="color:#BBC6CD" xmlns="http://www.w3.org/2000/svg" viewBox="0 0 24 24" width="24" height="24" fill="none">
<g transform="translate(2 2)">
<path d="M10 0l2.5 3.9h-5z" fill="currentColor"/>
<path fill-rule="evenodd" clip-rule="evenodd" fill="currentColor" d="M10 4.4a7.8 7.8 0 1 1 0 15.6 7.8 7.8 0 0 1 0-15.6zm0 2.3a5.5 5.5 0 1 0 0 11 5.5 5.5 0 0 0 0-11z"/>
<rect x="9.1" y="5.6" width="1.8" height="13.2" rx=".9" fill="currentColor"/>
<rect x="3.6" y="11.3" width="12.8" height="1.8" rx=".9" fill="currentColor"/>
<rect x="9.1" y="5.6" width="1.8" height="13.2" rx=".9" fill="currentColor" transform="rotate(45 10 12.2)"/>
<rect x="9.1" y="5.6" width="1.8" height="13.2" rx=".9" fill="currentColor" transform="rotate(-45 10 12.2)"/>
<circle cx="10" cy="12.2" r="2.2" fill="currentColor"/>
</g>
</svg>
